<?xml version="1.0" encoding="UTF-8" standalone="no"?>
<!-- Created with Inkscape (http://www.inkscape.org/) -->

<svg
   id="svg2"
   sodipodi:docname="monitor.svg"
   viewBox="0 0 402.11098 367.16198"
   version="1.1"
   inkscape:version="1.2.2 (b0a8486541, 2022-12-01)"
   width="402.11099"
   height="367.16199"
   xmlns:inkscape="http://www.inkscape.org/namespaces/inkscape"
   xmlns:sodipodi="http://sodipodi.sourceforge.net/DTD/sodipodi-0.dtd"
   xmlns="http://www.w3.org/2000/svg"
   xmlns:svg="http://www.w3.org/2000/svg"
   xmlns:rdf="http://www.w3.org/1999/02/22-rdf-syntax-ns#"
   xmlns:cc="http://creativecommons.org/ns#"
   xmlns:dc="http://purl.org/dc/elements/1.1/">
  <defs
     id="defs13" />
  <sodipodi:namedview
     id="base"
     bordercolor="#666666"
     inkscape:pageshadow="2"
     inkscape:guide-bbox="true"
     pagecolor="#ffffff"
     inkscape:window-height="1007"
     inkscape:window-maximized="1"
     inkscape:zoom="0.85839035"
     inkscape:window-x="0"
     showgrid="false"
     borderopacity="1.0"
     inkscape:current-layer="layer1"
     inkscape:cx="424.0495"
     inkscape:cy="421.71956"
     showguides="true"
     inkscape:window-y="0"
     inkscape:window-width="1920"
     inkscape:pageopacity="0.0"
     inkscape:document-units="px"
     inkscape:showpageshadow="0"
     inkscape:pagecheckerboard="1"
     inkscape:deskcolor="#d1d1d1" />
  <g
     id="layer1"
     inkscape:label="Livello 1"
     inkscape:groupmode="layer">
    <g
       id="g169"
       transform="translate(-170.74609,-346.11523)">
      <path
         id="rect4090"
         style="fill:#ffffff"
         d="m 207.61523,346.11523 c -20.42538,0 -36.86914,16.44376 -36.86914,36.86915 v 216.26171 c 0,20.42539 16.44376,36.86914 36.86914,36.86914 h 328.37305 c 20.42539,0 36.86914,-16.44375 36.86914,-36.86914 V 382.98438 c 0,-20.42539 -16.44375,-36.86915 -36.86914,-36.86915 z m -1.11914,17.05079 h 329.3418 c 10.03791,0 18.11914,8.08123 18.11914,18.11914 v 191.50195 c 0,10.03791 -8.08123,18.11914 -18.11914,18.11914 h -329.3418 c -10.0379,0 -18.11914,-8.08123 -18.11914,-18.11914 V 381.28516 c 0,-10.03791 8.08124,-18.11914 18.11914,-18.11914 z m 165.33203,241.13867 a 9.1392031,9.139267 0 0 1 9.13868,9.0332 9.1392031,9.139267 0 0 1 -8.92578,9.24219 9.1392031,9.139267 0 0 1 -9.34571,-8.81836 9.1392031,9.139267 0 0 1 8.71094,-9.44727 z" />
      <path
         id="rect4112"
         d="m 340.877,651.1853 c -4.1321,0 -7.4829,3.3508 -7.4829,7.4829 v 32.674 h -27.818 c -5.0122,0 -9.0252,4.0702 -9.0252,9.0823 v 3.8272 c 0,5.0122 4.0131,9.0252 9.0252,9.0252 h 132.07 c 5.0121,0 9.0252,-4.013 9.0252,-9.0252 v -3.8272 c 0,-5.0122 -4.0131,-9.0823 -9.0252,-9.0823 h -27.475 v -32.674 c 0,-4.1322 -3.2936,-7.4829 -7.4258,-7.4829 h -61.863 z"
         style="fill:#ffffff"
         inkscape:connector-curvature="0" />
    </g>
  </g>
  <metadata
     id="metadata10">
    <rdf:RDF>
      <cc:Work>
        <dc:format>image/svg+xml</dc:format>
        <dc:type
           rdf:resource="http://purl.org/dc/dcmitype/StillImage" />
        <cc:license
           rdf:resource="http://creativecommons.org/publicdomain/zero/1.0/" />
        <dc:publisher>
          <cc:Agent
             rdf:about="http://openclipart.org/">
            <dc:title>Openclipart</dc:title>
          </cc:Agent>
        </dc:publisher>
      </cc:Work>
      <cc:License
         rdf:about="http://creativecommons.org/publicdomain/zero/1.0/">
        <cc:permits
           rdf:resource="http://creativecommons.org/ns#Reproduction" />
        <cc:permits
           rdf:resource="http://creativecommons.org/ns#Distribution" />
        <cc:permits
           rdf:resource="http://creativecommons.org/ns#DerivativeWorks" />
      </cc:License>
    </rdf:RDF>
  </metadata>
</svg>
